# WaveFront *.obj file (generated by Autodesk ATF)

mtllib 86291681-e2f0-4067-bfab-49e4ecef812e.mtl

g cylinder

v -10.011358 15.000000 1.000000
v -9.888102 15.000000 -0.566121
v -9.521367 15.000000 -2.093679
v -8.920185 15.000000 -3.545061
v -8.099359 15.000000 -4.884528
v -7.079099 15.000000 -6.079099
v -5.884529 15.000000 -7.099358
v -4.545061 15.000000 -7.920185
v -3.093680 15.000000 -8.521367
v -1.566122 15.000000 -8.888101
v -0.000000 15.000000 -9.011358
v 1.566121 15.000000 -8.888101
v 3.093680 15.000000 -8.521367
v 4.545061 15.000000 -7.920185
v 5.884528 15.000000 -7.099358
v 7.079099 15.000000 -6.079099
v 8.099359 15.000000 -4.884528
v 8.920185 15.000000 -3.545061
v 9.521367 15.000000 -2.093679
v 9.888101 15.000000 -0.566121
v 10.011358 15.000000 1.000000
v 9.888101 15.000000 2.566122
v 9.521367 15.000000 4.093680
v 8.920185 15.000000 5.545062
v 8.099359 15.000000 6.884529
v 7.079099 15.000000 8.079100
v 5.884528 15.000000 9.099359
v 4.545061 15.000000 9.920186
v 3.093680 15.000000 10.521368
v 1.566121 15.000000 10.888102
v -0.000000 15.000000 11.011358
v -1.566122 15.000000 10.888102
v -3.093680 15.000000 10.521368
v -4.545061 15.000000 9.920186
v -5.884529 15.000000 9.099359
v -7.079099 15.000000 8.079100
v -8.099359 15.000000 6.884529
v -8.920185 15.000000 5.545062
v -9.521367 15.000000 4.093680
v -9.888102 15.000000 2.566122
v -10.011358 0.000000 1.000000
v -9.888102 0.000000 2.566122
v -9.521367 0.000000 4.093680
v -8.920185 0.000000 5.545062
v -8.099359 0.000000 6.884529
v -7.079099 0.000000 8.079100
v -5.884529 0.000000 9.099359
v -4.545061 0.000000 9.920186
v -3.093680 0.000000 10.521368
v -1.566122 0.000000 10.888102
v -0.000000 0.000000 11.011358
v 1.566121 0.000000 10.888102
v 3.093680 0.000000 10.521368
v 4.545061 0.000000 9.920186
v 5.884528 0.000000 9.099359
v 7.079099 0.000000 8.079100
v 8.099359 0.000000 6.884529
v 8.920185 0.000000 5.545062
v 9.521367 0.000000 4.093680
v 9.888101 0.000000 2.566122
v 10.011358 0.000000 1.000000
v 9.888101 0.000000 -0.566121
v 9.521367 0.000000 -2.093679
v 8.920185 0.000000 -3.545061
v 8.099359 0.000000 -4.884528
v 7.079099 0.000000 -6.079099
v 5.884528 0.000000 -7.099358
v 4.545061 0.000000 -7.920185
v 3.093680 0.000000 -8.521367
v 1.566121 0.000000 -8.888101
v -0.000000 0.000000 -9.011358
v -1.566122 0.000000 -8.888101
v -3.093680 0.000000 -8.521367
v -4.545061 0.000000 -7.920185
v -5.884529 0.000000 -7.099358
v -7.079099 0.000000 -6.079099
v -8.099359 0.000000 -4.884528
v -8.920185 0.000000 -3.545061
v -9.521367 0.000000 -2.093679
v -9.888102 0.000000 -0.566121
vt -1.500000 2.987903 0.000000
vt -0.000000 2.987903 0.000000
vt -1.500000 3.145161 0.000000
vt -0.000000 3.145161 0.000000
vt -1.500000 -3.145161 0.000000
vt -0.000000 -3.145161 0.000000
vt -1.500000 -2.987903 0.000000
vt -0.000000 -2.987903 0.000000
vt -1.500000 -2.830645 0.000000
vt -0.000000 -2.830645 0.000000
vt -1.500000 -2.673387 0.000000
vt -0.000000 -2.673387 0.000000
vt -1.500000 -2.516129 0.000000
vt -0.000000 -2.516129 0.000000
vt -1.500000 -2.358871 0.000000
vt -0.000000 -2.358871 0.000000
vt -1.500000 -2.201613 0.000000
vt -0.000000 -2.201613 0.000000
vt -1.500000 -2.044355 0.000000
vt -0.000000 -2.044355 0.000000
vt -1.500000 -1.887097 0.000000
vt -0.000000 -1.887097 0.000000
vt -1.500000 -1.729838 0.000000
vt -0.000000 -1.729838 0.000000
vt -1.500000 -1.572580 0.000000
vt -0.000000 -1.572580 0.000000
vt -1.500000 -1.415322 0.000000
vt -0.000000 -1.415322 0.000000
vt -1.500000 -1.258064 0.000000
vt -0.000000 -1.258064 0.000000
vt -1.500000 -1.100806 0.000000
vt -0.000000 -1.100806 0.000000
vt -1.500000 -0.943548 0.000000
vt -0.000000 -0.943548 0.000000
vt -1.500000 -0.786290 0.000000
vt -0.000000 -0.786290 0.000000
vt -1.500000 -0.629032 0.000000
vt -0.000000 -0.629032 0.000000
vt -1.500000 -0.471774 0.000000
vt -0.000000 -0.471774 0.000000
vt -1.500000 -0.314516 0.000000
vt -0.000000 -0.314516 0.000000
vt -1.500000 -0.157258 0.000000
vt -0.000000 -0.157258 0.000000
vt -1.500000 0.000000 0.000000
vt -0.000000 0.000000 0.000000
vt -1.500000 0.157258 0.000000
vt -0.000000 0.157258 0.000000
vt -1.500000 0.314516 0.000000
vt -0.000000 0.314516 0.000000
vt -1.500000 0.471774 0.000000
vt -0.000000 0.471774 0.000000
vt -1.500000 0.629032 0.000000
vt -0.000000 0.629032 0.000000
vt -1.500000 0.786290 0.000000
vt -0.000000 0.786290 0.000000
vt -1.500000 0.943548 0.000000
vt -0.000000 0.943548 0.000000
vt -1.500000 1.100806 0.000000
vt -0.000000 1.100806 0.000000
vt -1.500000 1.258064 0.000000
vt -0.000000 1.258064 0.000000
vt -1.500000 1.415322 0.000000
vt -0.000000 1.415322 0.000000
vt -1.500000 1.572580 0.000000
vt -0.000000 1.572580 0.000000
vt -1.500000 1.729838 0.000000
vt -0.000000 1.729838 0.000000
vt -1.500000 1.887097 0.000000
vt -0.000000 1.887097 0.000000
vt -1.500000 2.044355 0.000000
vt -0.000000 2.044355 0.000000
vt -1.500000 2.201613 0.000000
vt -0.000000 2.201613 0.000000
vt -1.500000 2.358871 0.000000
vt -0.000000 2.358871 0.000000
vt -1.500000 2.516129 0.000000
vt -0.000000 2.516129 0.000000
vt -1.500000 2.673387 0.000000
vt -0.000000 2.673387 0.000000
vt -1.500000 2.830645 0.000000
vt -0.000000 2.830645 0.000000
vt -0.988810 -0.156612 0.000000
vt 0.988810 -0.156612 0.000000
vt -1.001136 0.000000 0.000000
vt 1.001136 0.000000 0.000000
vt -0.988810 0.156612 0.000000
vt 0.988810 0.156612 0.000000
vt -0.952137 0.309368 0.000000
vt 0.952137 0.309368 0.000000
vt -0.892019 0.454506 0.000000
vt 0.892019 0.454506 0.000000
vt -0.809936 0.588453 0.000000
vt 0.809936 0.588453 0.000000
vt -0.707910 0.707910 0.000000
vt 0.707910 0.707910 0.000000
vt -0.588453 0.809936 0.000000
vt 0.588453 0.809936 0.000000
vt -0.454506 0.892019 0.000000
vt 0.454506 0.892019 0.000000
vt -0.309368 0.952137 0.000000
vt 0.309368 0.952137 0.000000
vt -0.156612 0.988810 0.000000
vt 0.156612 0.988810 0.000000
vt 0.000000 1.001136 0.000000
vt 0.952137 -0.309368 0.000000
vt -0.952137 -0.309368 0.000000
vt 0.892019 -0.454506 0.000000
vt -0.892019 -0.454506 0.000000
vt 0.809936 -0.588453 0.000000
vt -0.809936 -0.588453 0.000000
vt 0.707910 -0.707910 0.000000
vt -0.707910 -0.707910 0.000000
vt 0.588453 -0.809936 0.000000
vt -0.588453 -0.809936 0.000000
vt 0.454506 -0.892019 0.000000
vt -0.454506 -0.892019 0.000000
vt 0.309368 -0.952137 0.000000
vt -0.309368 -0.952137 0.000000
vt 0.156612 -0.988810 0.000000
vt -0.156612 -0.988810 0.000000
vt 0.000000 -1.001136 0.000000
vt 0.988810 0.156612 0.000000
vt -0.988810 0.156612 0.000000
vt 1.001136 0.000000 0.000000
vt -1.001136 0.000000 0.000000
vt 0.988810 -0.156612 0.000000
vt -0.988810 -0.156612 0.000000
vt 0.952137 -0.309368 0.000000
vt -0.952137 -0.309368 0.000000
vt 0.892019 -0.454506 0.000000
vt -0.892019 -0.454506 0.000000
vt 0.809936 -0.588453 0.000000
vt -0.809936 -0.588453 0.000000
vt 0.707910 -0.707910 0.000000
vt -0.707910 -0.707910 0.000000
vt 0.588453 -0.809936 0.000000
vt -0.588453 -0.809936 0.000000
vt 0.454506 -0.892019 0.000000
vt -0.454506 -0.892019 0.000000
vt 0.309368 -0.952137 0.000000
vt -0.309368 -0.952137 0.000000
vt 0.156612 -0.988810 0.000000
vt -0.156612 -0.988810 0.000000
vt -0.000000 -1.001136 0.000000
vt -0.952137 0.309368 0.000000
vt 0.952137 0.309368 0.000000
vt -0.892019 0.454506 0.000000
vt 0.892019 0.454506 0.000000
vt -0.809936 0.588453 0.000000
vt 0.809936 0.588453 0.000000
vt -0.707910 0.707910 0.000000
vt 0.707910 0.707910 0.000000
vt -0.588453 0.809936 0.000000
vt 0.588453 0.809936 0.000000
vt -0.454506 0.892019 0.000000
vt 0.454506 0.892019 0.000000
vt -0.309368 0.952137 0.000000
vt 0.309368 0.952137 0.000000
vt -0.156612 0.988810 0.000000
vt 0.156612 0.988810 0.000000
vt -0.000000 1.001136 0.000000
vn -0.098769 0.000000 -0.015643
vn -0.098769 0.000000 -0.015643
vn -0.100000 0.000000 -0.000000
vn -0.100000 0.000000 -0.000000
vn -0.098769 0.000000 0.015643
vn -0.098769 0.000000 0.015643
vn -0.095106 0.000000 0.030902
vn -0.095106 0.000000 0.030902
vn -0.089101 0.000000 0.045399
vn -0.089101 0.000000 0.045399
vn -0.080902 0.000000 0.058779
vn -0.080902 0.000000 0.058779
vn -0.070711 0.000000 0.070711
vn -0.070711 0.000000 0.070711
vn -0.058779 0.000000 0.080902
vn -0.058779 0.000000 0.080902
vn -0.045399 0.000000 0.089101
vn -0.045399 0.000000 0.089101
vn -0.030902 0.000000 0.095106
vn -0.030902 0.000000 0.095106
vn -0.015643 0.000000 0.098769
vn -0.015643 0.000000 0.098769
vn 0.000000 -0.000000 0.100000
vn 0.000000 -0.000000 0.100000
vn 0.015643 -0.000000 0.098769
vn 0.015643 -0.000000 0.098769
vn 0.030902 -0.000000 0.095106
vn 0.030902 -0.000000 0.095106
vn 0.045399 -0.000000 0.089101
vn 0.045399 -0.000000 0.089101
vn 0.058779 -0.000000 0.080902
vn 0.058779 -0.000000 0.080902
vn 0.070711 -0.000000 0.070711
vn 0.070711 -0.000000 0.070711
vn 0.080902 -0.000000 0.058779
vn 0.080902 -0.000000 0.058779
vn 0.089101 -0.000000 0.045399
vn 0.089101 -0.000000 0.045399
vn 0.095106 -0.000000 0.030902
vn 0.095106 -0.000000 0.030902
vn 0.098769 -0.000000 0.015643
vn 0.098769 -0.000000 0.015643
vn 0.100000 0.000000 0.000000
vn 0.100000 0.000000 0.000000
vn 0.098769 0.000000 -0.015643
vn 0.098769 0.000000 -0.015643
vn 0.095106 0.000000 -0.030902
vn 0.095106 0.000000 -0.030902
vn 0.089101 0.000000 -0.045399
vn 0.089101 0.000000 -0.045399
vn 0.080902 0.000000 -0.058779
vn 0.080902 0.000000 -0.058779
vn 0.070711 0.000000 -0.070711
vn 0.070711 0.000000 -0.070711
vn 0.058779 0.000000 -0.080902
vn 0.058779 0.000000 -0.080902
vn 0.045399 0.000000 -0.089101
vn 0.045399 0.000000 -0.089101
vn 0.030902 0.000000 -0.095106
vn 0.030902 0.000000 -0.095106
vn 0.015643 0.000000 -0.098769
vn 0.015643 0.000000 -0.098769
vn 0.000000 0.000000 -0.100000
vn 0.000000 0.000000 -0.100000
vn -0.015643 0.000000 -0.098769
vn -0.015643 0.000000 -0.098769
vn -0.030902 0.000000 -0.095106
vn -0.030902 0.000000 -0.095106
vn -0.045399 0.000000 -0.089101
vn -0.045399 0.000000 -0.089101
vn -0.058779 0.000000 -0.080902
vn -0.058779 0.000000 -0.080902
vn -0.070711 0.000000 -0.070711
vn -0.070711 0.000000 -0.070711
vn -0.080902 0.000000 -0.058779
vn -0.080902 0.000000 -0.058779
vn -0.089101 0.000000 -0.045399
vn -0.089101 0.000000 -0.045399
vn -0.095106 0.000000 -0.030902
vn -0.095106 0.000000 -0.030902
vn 0.000000 0.100000 0.000000
vn 0.000000 0.100000 0.000000
vn 0.000000 0.100000 0.000000
vn 0.000000 0.100000 0.000000
vn 0.000000 0.100000 0.000000
vn 0.000000 0.100000 0.000000
vn 0.000000 0.100000 0.000000
vn 0.000000 0.100000 0.000000
vn 0.000000 0.100000 0.000000
vn 0.000000 0.100000 0.000000
vn 0.000000 0.100000 0.000000
vn 0.000000 0.100000 0.000000
vn 0.000000 0.100000 0.000000
vn 0.000000 0.100000 0.000000
vn 0.000000 0.100000 0.000000
vn 0.000000 0.100000 0.000000
vn 0.000000 0.100000 0.000000
vn 0.000000 0.100000 0.000000
vn 0.000000 0.100000 0.000000
vn 0.000000 0.100000 0.000000
vn 0.000000 0.100000 0.000000
vn 0.000000 0.100000 0.000000
vn 0.000000 0.100000 0.000000
vn 0.000000 0.100000 0.000000
vn 0.000000 0.100000 0.000000
vn 0.000000 0.100000 0.000000
vn 0.000000 0.100000 0.000000
vn 0.000000 0.100000 0.000000
vn 0.000000 0.100000 0.000000
vn 0.000000 0.100000 0.000000
vn 0.000000 0.100000 0.000000
vn 0.000000 0.100000 0.000000
vn 0.000000 0.100000 0.000000
vn 0.000000 0.100000 0.000000
vn 0.000000 0.100000 0.000000
vn 0.000000 0.100000 0.000000
vn 0.000000 0.100000 0.000000
vn 0.000000 0.100000 0.000000
vn 0.000000 0.100000 0.000000
vn 0.000000 0.100000 0.000000
vn 0.000000 -0.100000 0.000000
vn 0.000000 -0.100000 0.000000
vn 0.000000 -0.100000 0.000000
vn 0.000000 -0.100000 0.000000
vn 0.000000 -0.100000 0.000000
vn 0.000000 -0.100000 0.000000
vn 0.000000 -0.100000 0.000000
vn 0.000000 -0.100000 0.000000
vn 0.000000 -0.100000 0.000000
vn 0.000000 -0.100000 0.000000
vn 0.000000 -0.100000 0.000000
vn 0.000000 -0.100000 0.000000
vn 0.000000 -0.100000 0.000000
vn 0.000000 -0.100000 0.000000
vn 0.000000 -0.100000 0.000000
vn 0.000000 -0.100000 0.000000
vn 0.000000 -0.100000 0.000000
vn 0.000000 -0.100000 0.000000
vn 0.000000 -0.100000 0.000000
vn 0.000000 -0.100000 0.000000
vn 0.000000 -0.100000 0.000000
vn 0.000000 -0.100000 0.000000
vn 0.000000 -0.100000 0.000000
vn 0.000000 -0.100000 0.000000
vn 0.000000 -0.100000 0.000000
vn 0.000000 -0.100000 0.000000
vn 0.000000 -0.100000 0.000000
vn 0.000000 -0.100000 0.000000
vn 0.000000 -0.100000 0.000000
vn 0.000000 -0.100000 0.000000
vn 0.000000 -0.100000 0.000000
vn 0.000000 -0.100000 0.000000
vn 0.000000 -0.100000 0.000000
vn 0.000000 -0.100000 0.000000
vn 0.000000 -0.100000 0.000000
vn 0.000000 -0.100000 0.000000
vn 0.000000 -0.100000 0.000000
vn 0.000000 -0.100000 0.000000
vn 0.000000 -0.100000 0.000000
vn 0.000000 -0.100000 0.000000
usemtl Steel_-_Satin
f 2/1/1 80/2/2 1/3/3
f 1/3/3 80/2/2 41/4/4
f 1/5/3 41/6/4 40/7/5
f 40/7/5 41/6/4 42/8/6
f 40/7/5 42/8/6 39/9/7
f 39/9/7 42/8/6 43/10/8
f 39/9/7 43/10/8 38/11/9
f 38/11/9 43/10/8 44/12/10
f 38/11/9 44/12/10 37/13/11
f 37/13/11 44/12/10 45/14/12
f 37/13/11 45/14/12 36/15/13
f 36/15/13 45/14/12 46/16/14
f 36/15/13 46/16/14 35/17/15
f 35/17/15 46/16/14 47/18/16
f 35/17/15 47/18/16 34/19/17
f 34/19/17 47/18/16 48/20/18
f 34/19/17 48/20/18 33/21/19
f 33/21/19 48/20/18 49/22/20
f 33/21/19 49/22/20 32/23/21
f 32/23/21 49/22/20 50/24/22
f 32/23/21 50/24/22 31/25/23
f 31/25/23 50/24/22 51/26/24
f 31/25/23 51/26/24 30/27/25
f 30/27/25 51/26/24 52/28/26
f 30/27/25 52/28/26 29/29/27
f 29/29/27 52/28/26 53/30/28
f 29/29/27 53/30/28 28/31/29
f 28/31/29 53/30/28 54/32/30
f 28/31/29 54/32/30 27/33/31
f 27/33/31 54/32/30 55/34/32
f 27/33/31 55/34/32 26/35/33
f 26/35/33 55/34/32 56/36/34
f 26/35/33 56/36/34 25/37/35
f 25/37/35 56/36/34 57/38/36
f 25/37/35 57/38/36 24/39/37
f 24/39/37 57/38/36 58/40/38
f 24/39/37 58/40/38 23/41/39
f 23/41/39 58/40/38 59/42/40
f 23/41/39 59/42/40 22/43/41
f 22/43/41 59/42/40 60/44/42
f 22/43/41 60/44/42 21/45/43
f 21/45/43 60/44/42 61/46/44
f 21/45/43 61/46/44 20/47/45
f 20/47/45 61/46/44 62/48/46
f 20/47/45 62/48/46 19/49/47
f 19/49/47 62/48/46 63/50/48
f 19/49/47 63/50/48 18/51/49
f 18/51/49 63/50/48 64/52/50
f 18/51/49 64/52/50 17/53/51
f 17/53/51 64/52/50 65/54/52
f 17/53/51 65/54/52 16/55/53
f 16/55/53 65/54/52 66/56/54
f 16/55/53 66/56/54 15/57/55
f 15/57/55 66/56/54 67/58/56
f 15/57/55 67/58/56 14/59/57
f 14/59/57 67/58/56 68/60/58
f 14/59/57 68/60/58 13/61/59
f 13/61/59 68/60/58 69/62/60
f 13/61/59 69/62/60 12/63/61
f 12/63/61 69/62/60 70/64/62
f 12/63/61 70/64/62 11/65/63
f 11/65/63 70/64/62 71/66/64
f 11/65/63 71/66/64 10/67/65
f 10/67/65 71/66/64 72/68/66
f 10/67/65 72/68/66 9/69/67
f 9/69/67 72/68/66 73/70/68
f 9/69/67 73/70/68 8/71/69
f 8/71/69 73/70/68 74/72/70
f 8/71/69 74/72/70 7/73/71
f 7/73/71 74/72/70 75/74/72
f 7/73/71 75/74/72 6/75/73
f 6/75/73 75/74/72 76/76/74
f 6/75/73 76/76/74 5/77/75
f 5/77/75 76/76/74 77/78/76
f 5/77/75 77/78/76 4/79/77
f 4/79/77 77/78/76 78/80/78
f 4/79/77 78/80/78 3/81/79
f 3/81/79 78/80/78 79/82/80
f 3/81/79 79/82/80 2/1/1
f 2/1/1 79/82/80 80/2/2
f 40/83/81 22/84/82 1/85/83
f 1/85/83 22/84/82 21/86/84
f 1/85/83 21/86/84 2/87/85
f 2/87/85 21/86/84 20/88/86
f 2/87/85 20/88/86 3/89/87
f 3/89/87 20/88/86 19/90/88
f 3/89/87 19/90/88 4/91/89
f 4/91/89 19/90/88 18/92/90
f 4/91/89 18/92/90 5/93/91
f 5/93/91 18/92/90 17/94/92
f 5/93/91 17/94/92 6/95/93
f 6/95/93 17/94/92 16/96/94
f 6/95/93 16/96/94 7/97/95
f 7/97/95 16/96/94 15/98/96
f 7/97/95 15/98/96 8/99/97
f 8/99/97 15/98/96 14/100/98
f 8/99/97 14/100/98 9/101/99
f 9/101/99 14/100/98 13/102/100
f 9/101/99 13/102/100 10/103/101
f 10/103/101 13/102/100 12/104/102
f 10/103/101 12/104/102 11/105/103
f 22/84/82 40/83/81 23/106/104
f 23/106/104 40/83/81 39/107/105
f 23/106/104 39/107/105 24/108/106
f 24/108/106 39/107/105 38/109/107
f 24/108/106 38/109/107 25/110/108
f 25/110/108 38/109/107 37/111/109
f 25/110/108 37/111/109 26/112/110
f 26/112/110 37/111/109 36/113/111
f 26/112/110 36/113/111 27/114/112
f 27/114/112 36/113/111 35/115/113
f 27/114/112 35/115/113 28/116/114
f 28/116/114 35/115/113 34/117/115
f 28/116/114 34/117/115 29/118/116
f 29/118/116 34/117/115 33/119/117
f 29/118/116 33/119/117 30/120/118
f 30/120/118 33/119/117 32/121/119
f 30/120/118 32/121/119 31/122/120
f 80/123/121 62/124/122 41/125/123
f 41/125/123 62/124/122 61/126/124
f 41/125/123 61/126/124 42/127/125
f 42/127/125 61/126/124 60/128/126
f 42/127/125 60/128/126 43/129/127
f 43/129/127 60/128/126 59/130/128
f 43/129/127 59/130/128 44/131/129
f 44/131/129 59/130/128 58/132/130
f 44/131/129 58/132/130 45/133/131
f 45/133/131 58/132/130 57/134/132
f 45/133/131 57/134/132 46/135/133
f 46/135/133 57/134/132 56/136/134
f 46/135/133 56/136/134 47/137/135
f 47/137/135 56/136/134 55/138/136
f 47/137/135 55/138/136 48/139/137
f 48/139/137 55/138/136 54/140/138
f 48/139/137 54/140/138 49/141/139
f 49/141/139 54/140/138 53/142/140
f 49/141/139 53/142/140 50/143/141
f 50/143/141 53/142/140 52/144/142
f 50/143/141 52/144/142 51/145/143
f 62/124/122 80/123/121 63/146/144
f 63/146/144 80/123/121 79/147/145
f 63/146/144 79/147/145 64/148/146
f 64/148/146 79/147/145 78/149/147
f 64/148/146 78/149/147 65/150/148
f 65/150/148 78/149/147 77/151/149
f 65/150/148 77/151/149 66/152/150
f 66/152/150 77/151/149 76/153/151
f 66/152/150 76/153/151 67/154/152
f 67/154/152 76/153/151 75/155/153
f 67/154/152 75/155/153 68/156/154
f 68/156/154 75/155/153 74/157/155
f 68/156/154 74/157/155 69/158/156
f 69/158/156 74/157/155 73/159/157
f 69/158/156 73/159/157 70/160/158
f 70/160/158 73/159/157 72/161/159
f 70/160/158 72/161/159 71/162/160

# 80 vertices
# 162 texture params
# 160 normals
# 156 facets

# 1 groups
